<svg width="31" height="29" viewBox="0 0 31 29" fill="none" xmlns="http://www.w3.org/2000/svg">
<g id="Frame 29">
<path id="Vector" d="M4.54002 2.5199H3.02002V4.0499H4.54002V2.5199Z" fill="#FF7E52"/>
<rect id="Rectangle 9" x="8.5" y="12" width="12" height="4" fill="#FF7E52"/>
<rect id="Rectangle 10" x="16.5" y="8" width="12" height="4" transform="rotate(90 16.5 8)" fill="#FF7E52"/>
<rect id="Rectangle 11" x="4.5" y="2" width="2" height="2" transform="rotate(90 4.5 2)" fill="#FF7E52"/>
<rect id="Rectangle 16" x="4.5" y="24" width="3" height="2" transform="rotate(90 4.5 24)" fill="#FF7E52"/>
<rect id="Rectangle 17" x="2.5" y="4" width="20" height="2" transform="rotate(90 2.5 4)" fill="#FF7E52"/>
<rect id="Rectangle 12" x="27.5" width="2" height="23" transform="rotate(90 27.5 0)" fill="#FF7E52"/>
<rect id="Rectangle 14" x="29" y="28" width="3" height="27" transform="rotate(-180 29 28)" fill="#FF7E52"/>
<rect id="Rectangle 15" x="30" y="27" width="1" height="25" transform="rotate(-180 30 27)" fill="#FF7E52"/>
<rect id="Rectangle 13" x="27.5" y="25" width="4" height="23" transform="rotate(90 27.5 25)" fill="#FF7E52"/>
</g>
</svg>
