<svg width="204" height="204" viewBox="0 0 204 204" fill="none" xmlns="http://www.w3.org/2000/svg">
<g id="interface-essential-skull-2--Streamline-Pixel">
<g id="Group">
<path id="Vector" d="M150.546 53.4227V72.8665H160.3V53.4227H169.99V43.669H179.68V33.979H199.123V14.5352H189.433V4.84521H169.99V24.289H160.3V33.979H150.546V43.669H131.166V53.4227H150.546Z" fill="#EA5555"/>
<path id="Vector_2" d="M179.679 92.2466H169.99V131.134H179.679V92.2466Z" fill="#EA5555"/>
<path id="Vector_3" d="M169.99 131.134H160.3V140.824H169.99V131.134Z" fill="#EA5555"/>
<path id="Vector_4" d="M169.99 72.8667H160.3V92.2467H169.99V72.8667Z" fill="#EA5555"/>
<path id="Vector_5" d="M150.546 150.577H140.856V179.711H150.546V169.957H160.299V179.711H169.989V199.155H189.433V189.401H199.123V169.957H179.679V160.267H169.989V150.577H160.299V140.824H150.546V150.577Z" fill="#EA5555"/>
<path id="Vector_6" d="M121.412 111.69H140.856V102H150.546V82.5567H140.856V72.8667H121.412V82.5567H111.722V102H121.412V111.69Z" fill="#EA5555"/>
<path id="Vector_7" d="M121.412 160.268H111.722V179.711H92.2783V160.268H82.5883V179.711H63.1445V189.401H140.856V179.711H121.412V160.268Z" fill="#EA5555"/>
<path id="Vector_8" d="M111.722 121.38H92.2783V131.134H111.722V121.38Z" fill="#EA5555"/>
<path id="Vector_9" d="M63.1443 111.69H82.5881V102H92.2781V82.5567H82.5881V72.8667H63.1443V82.5567H53.4543V102H63.1443V111.69Z" fill="#EA5555"/>
<path id="Vector_10" d="M131.166 33.979H72.8345V43.669H131.166V33.979Z" fill="#EA5555"/>
<path id="Vector_11" d="M34.0107 150.577V160.267H24.257V169.957H4.87695V189.401H14.567V199.155H34.0107V179.711H43.7007V169.957H53.4545V179.711H63.1444V150.577H53.4545V140.824H43.7007V150.577H34.0107Z" fill="#EA5555"/>
<path id="Vector_12" d="M53.4545 53.4227H72.8344V43.669H53.4545V33.979H43.7007V24.289H34.0107V4.84521H14.567V14.5352H4.87695V33.979H24.257V43.669H34.0107V53.4227H43.7007V72.8665H53.4545V53.4227Z" fill="#EA5555"/>
<path id="Vector_13" d="M43.7007 131.134H34.0107V140.824H43.7007V131.134Z" fill="#EA5555"/>
<path id="Vector_14" d="M43.7007 72.8667H34.0107V92.2467H43.7007V72.8667Z" fill="#EA5555"/>
<path id="Vector_15" d="M34.0106 92.2466H24.2568V131.134H34.0106V92.2466Z" fill="#EA5555"/>
</g>
</g>
</svg>
