<svg width="30" height="29" viewBox="0 0 30 29" fill="none" xmlns="http://www.w3.org/2000/svg">
<g id="Frame 30">
<path id="Vector" d="M4.04002 2.52002H2.52002V4.05002H4.04002V2.52002Z" fill="#FF7E52"/>
<rect id="Rectangle 18" x="8" y="12" width="12" height="4" fill="#FF7E52"/>
<rect id="Rectangle 20" x="4" y="2" width="2" height="2" transform="rotate(90 4 2)" fill="#FF7E52"/>
<rect id="Rectangle 21" x="4" y="24" width="3" height="2" transform="rotate(90 4 24)" fill="#FF7E52"/>
<rect id="Rectangle 22" x="2" y="4" width="20" height="2" transform="rotate(90 2 4)" fill="#FF7E52"/>
<rect id="Rectangle 23" x="27" width="2" height="23" transform="rotate(90 27 0)" fill="#FF7E52"/>
<rect id="Rectangle 24" x="28.5" y="28" width="3" height="27" transform="rotate(-180 28.5 28)" fill="#FF7E52"/>
<rect id="Rectangle 25" x="29.5" y="27" width="1" height="25" transform="rotate(-180 29.5 27)" fill="#FF7E52"/>
<rect id="Rectangle 26" x="27" y="25" width="4" height="23" transform="rotate(90 27 25)" fill="#FF7E52"/>
</g>
</svg>
